<svg width="1024" height="110" viewBox="0 0 1024 110" fill="none" xmlns="http://www.w3.org/2000/svg">
<rect x="126" width="898" height="110" rx="55" fill="url(#paint0_linear_163_6175)"/>
<path d="M225.244 73.05V36.375H252.154V43.575H233.434V51.9H250.084V59.01H233.434V73.05H225.244ZM256.665 36.375H264.855V73.05H256.665V36.375ZM289.343 35.43C298.928 35.43 305.858 40.83 307.973 47.715H298.973C297.443 45.015 293.978 42.945 289.523 42.945C282.863 42.945 277.913 47.85 277.913 54.69C277.913 61.575 282.863 66.57 289.523 66.57C295.238 66.57 299.198 63.06 300.053 59.46H288.848V52.53H308.783V54.69C308.783 65.805 300.458 73.95 289.343 73.95C278.048 73.95 269.723 65.805 269.723 54.69C269.723 43.575 278.048 35.43 289.343 35.43ZM338.052 36.375H346.242V73.05H338.052V58.155H321.852V73.05H313.662V36.375H321.852V50.91H338.052V36.375ZM382.699 36.375V43.62H370.774V73.05H362.584V43.62H350.659V36.375H382.699ZM387.094 73.05V36.375H393.934L412.249 58.425V35.925H420.439V72.6H413.599L395.284 50.55V73.05H387.094ZM444.909 35.43C454.494 35.43 461.424 40.83 463.539 47.715H454.539C453.009 45.015 449.544 42.945 445.089 42.945C438.429 42.945 433.479 47.85 433.479 54.69C433.479 61.575 438.429 66.57 445.089 66.57C450.804 66.57 454.764 63.06 455.619 59.46H444.414V52.53H464.349V54.69C464.349 65.805 456.024 73.95 444.909 73.95C433.614 73.95 425.289 65.805 425.289 54.69C425.289 43.575 433.614 35.43 444.909 35.43ZM506.861 73.05L504.296 65.94H490.076L487.511 73.05H479.051L493.271 36.375H501.776L515.996 73.05H506.861ZM492.596 58.83H501.776L497.186 46.05L492.596 58.83ZM519.678 73.05V36.375H526.518L544.833 58.425V35.925H553.023V72.6H546.183L527.868 50.55V73.05H519.678ZM559.492 36.375H567.682V73.05H559.492V36.375ZM574.17 73.05V36.375H580.695L593.34 56.895L605.985 36.375H612.51V73.05H604.32V52.935L595.815 67.02H590.865L582.36 52.935V73.05H574.17ZM644.014 73.05L641.449 65.94H627.229L624.664 73.05H616.204L630.424 36.375H638.929L653.149 73.05H644.014ZM629.749 58.83H638.929L634.339 46.05L629.749 58.83ZM656.831 36.375H665.021V65.805H683.336V73.05H656.831V36.375ZM730.043 36.375V43.62H718.118V73.05H709.928V43.62H698.003V36.375H730.043ZM734.438 73.05V36.375H761.708V43.485H742.628V50.955H760.133V58.065H742.628V65.94H762.113V73.05H734.438ZM781.882 35.475C790.072 35.475 796.192 40.47 796.597 47.445H788.137C787.642 44.25 785.257 42.315 781.342 42.315C777.517 42.315 775.402 43.845 775.402 46.05C775.402 48.795 778.237 49.74 785.392 51.225C793.852 52.98 796.732 57.165 796.732 62.655C796.732 69.675 790.117 73.95 781.927 73.95C772.882 73.95 766.267 69.045 765.907 61.215H774.322C774.772 64.725 777.832 67.065 782.512 67.065C785.842 67.065 788.317 65.4 788.317 63.015C788.317 60.09 785.842 58.92 779.317 57.705C771.352 56.22 767.032 52.935 767.032 46.05C767.032 39.435 773.602 35.475 781.882 35.475ZM831.029 36.375V43.62H819.104V73.05H810.914V43.62H798.989V36.375H831.029ZM835.425 36.375H843.615V73.05H835.425V36.375ZM850.102 73.05V36.375H856.942L875.257 58.425V35.925H883.447V72.6H876.607L858.292 50.55V73.05H850.102ZM907.917 35.43C917.502 35.43 924.432 40.83 926.547 47.715H917.547C916.017 45.015 912.552 42.945 908.097 42.945C901.437 42.945 896.487 47.85 896.487 54.69C896.487 61.575 901.437 66.57 908.097 66.57C913.812 66.57 917.772 63.06 918.627 59.46H907.422V52.53H927.357V54.69C927.357 65.805 919.032 73.95 907.917 73.95C896.622 73.95 888.297 65.805 888.297 54.69C888.297 43.575 896.622 35.43 907.917 35.43Z" fill="black"/>
<circle cx="55" cy="55" r="55" fill="url(#paint1_linear_163_6175)"/>
<path fill-rule="evenodd" clip-rule="evenodd" d="M83.5761 26.7629C83.6104 26.8383 83.631 26.9227 83.6422 27.0048C83.6453 27.528 83.5304 28.0451 83.3066 28.518C82.5547 30.894 81.2806 33.072 79.5779 34.8923C78.9203 35.456 78.2991 36.0654 77.7237 36.7135C77.4224 37.1403 77.2052 37.6082 76.9473 38.0509C76.7051 38.4929 76.4246 38.9129 76.1094 39.3062C76.0039 39.3918 75.9344 39.5138 75.9146 39.6482C75.8946 39.7825 75.9259 39.9194 76.0019 40.0319C76.2852 40.922 76.3193 41.8713 76.1002 42.7796C75.6321 45.6554 73.5016 49.1813 74.8306 52.0892C75.4243 53.4012 76.7442 54.28 77.548 55.5399C77.9248 56.1491 78.2489 56.9024 78.644 57.5618C79.2923 58.5957 79.6807 59.7711 79.7719 60.9876C81.9457 60.9876 82.3386 58.7327 84.5124 58.7647C84.7955 58.7647 85.1061 58.8492 85.163 59.2827C85.1836 59.4773 85.1429 59.6735 85.0467 59.844C84.635 60.6235 84.1624 61.3691 83.6332 62.074C83.0797 62.9833 82.4537 63.8465 81.7607 64.655C81.3065 65.1704 80.6845 65.5083 80.0048 65.6089C79.6714 65.6089 79.2856 65.5406 78.9932 65.7413C78.8516 65.8687 78.7325 66.0192 78.6415 66.1864C78.5342 66.3599 78.4339 66.5357 78.3083 66.7046C77.7668 67.3817 77.0618 67.9103 76.2601 68.2404C75.7554 68.5006 75.2325 68.722 74.696 68.9091C74.608 68.9321 74.529 68.9808 74.4691 69.0494C74.4094 69.1177 74.3716 69.2024 74.3608 69.2927C74.3498 69.3827 74.3666 69.474 74.4084 69.5547C74.4503 69.6354 74.5155 69.7015 74.5954 69.7446L75.7509 70.4885C76.5364 70.9974 77.9817 71.5406 78.1256 72.6201C78.1734 73.0377 77.2306 74.0807 77.0523 74.4666C76.3193 76.1372 77.4885 77.2326 76.1252 79.0037C75.2964 80.0398 74.0976 80.7152 72.7824 80.8909C71.489 81.1058 70.1651 81.0513 68.8938 80.7313C68.341 80.637 67.8433 80.3399 67.4986 79.8981C67.3434 79.6797 67.278 79.4102 67.3158 79.1451C67.4071 78.5858 67.9323 78.376 68.4119 78.2255C69.7386 77.826 71.1679 77.5748 72.1977 76.5548C72.4657 76.3034 72.6786 75.9993 72.8225 75.6614C72.9664 75.3234 73.0381 74.9593 73.0336 74.5919C73.0336 73.4624 72.1977 73.0287 71.4785 72.636L68.7361 71.1913C67.5144 70.5387 66.1854 69.7696 65.7678 68.4504C65.1992 66.6451 66.487 64.3882 67.3888 62.9024C67.7816 62.4116 68.0008 61.8069 68.0168 61.1793C67.9484 60.8005 67.7884 60.4422 67.5578 60.1363C66.7543 58.8598 65.8919 57.6216 64.973 56.4253C64.1372 55.3298 63.2101 54.4283 62.918 53.0409C62.6508 51.806 64.1465 46.8833 62.557 46.591C61.0616 47.1914 60.4679 48.588 59.6138 49.7565C59.8329 50.3181 60.5431 50.2359 60.8605 50.795C61.1378 51.3445 61.2135 51.9739 61.0746 52.5736C60.9357 53.173 60.591 53.7051 60.1002 54.0768C58.4265 55.0719 57.7757 52.9334 56.9559 51.9795C56.648 51.5962 56.2554 51.2895 55.8089 51.0835C55.3624 50.8777 54.874 50.7781 54.3824 50.7927C52.8193 50.8926 51.2727 51.1735 49.7745 51.6302C49.326 51.7238 48.8693 51.7712 48.4112 51.7719C47.5756 51.7719 47.5002 51.9795 47.2923 52.4566C46.5573 54.127 46.3562 55.5833 45.7786 57.3359C45.1611 58.8976 44.2882 60.3461 43.1959 61.6221C42.4425 62.5395 41.7824 63.53 41.2321 64.5821C41.177 64.6782 41.1612 64.7919 41.1888 64.8993C41.3144 65.2577 41.8236 65.4995 42.0748 65.7345C43.856 67.4052 43.0201 70.1211 41.7413 71.8669C40.3562 73.7433 38.4693 75.1911 36.2977 76.0434C35.6835 76.226 35.0875 76.4542 34.5098 76.7283C33.464 77.3146 33.4823 78.0336 33.4731 79.0788C33.4731 80.4163 33.8567 80.8819 34.9117 81.7445C35.3798 82.1281 36.2315 82.8468 35.8296 83.5408C35.7713 83.6376 35.6938 83.7213 35.6019 83.7874C35.51 83.8532 35.4057 83.8999 35.2953 83.9241C34.1764 84.2164 33.4891 83.6159 32.7858 82.9565C32.0848 82.2945 30.4385 81.4023 29.9612 80.373C29.484 79.3459 30.137 78.1844 29.7694 77.1391C29.4589 76.2535 29.0844 75.6442 30.1622 75.0004C31.1991 74.4048 32.1858 73.7254 33.1123 72.9694C33.8202 72.2641 34.4504 71.4859 34.9939 70.6484C33.3032 69.6455 31.7704 68.398 30.4453 66.9465C30.0868 67.2045 29.6986 67.4233 29.2922 67.5968C28.6163 67.8891 27.8605 67.9393 27.1526 67.7383C26.5142 67.6364 25.8961 67.4337 25.3213 67.1381C25.2497 67.1046 25.1855 67.0569 25.1326 66.9982C25.0796 66.9394 25.039 66.8706 25.013 66.7959C24.8692 66.1773 25.9561 65.5749 26.3671 65.2988C27.0362 64.865 27.7691 64.5365 28.5409 64.3219C29.194 64.1438 29.8722 64.0846 30.5458 64.1461C30.5458 64.1461 31.0139 62.859 31.2582 62.2404C31.8176 60.8028 33.0621 59.6501 33.7654 58.2465C35.1697 55.3389 35.8205 52.1232 35.663 48.8961C35.5625 46.7988 35.462 44.6193 36.348 42.6473C36.5969 41.9742 36.9257 41.3352 37.3276 40.7417C37.8779 40.0228 38.5378 39.5138 38.7067 38.569C39.0721 36.4374 37.2522 33.9406 36.0648 32.343C34.9779 30.8733 33.0279 28.2076 33.4891 26.2608C35.1606 25.1334 39.2662 27.9314 39.8827 29.4948C40.2366 30.3894 39.7252 31.6264 39.9421 32.6877C40.2183 34.0479 41.9584 33.4476 42.7188 33.1897C44.5158 32.569 49.8909 31.9687 49.1398 35.2027C48.7973 36.6565 47.6669 37.558 46.8494 38.7356C47.7424 39.6394 48.9798 40.1392 49.4571 41.5016C49.4571 41.4514 51.2702 40.9083 51.446 40.817C52.2841 40.3994 52.5009 39.6645 52.9188 38.9273C53.2681 38.4435 53.5513 37.9117 53.7547 37.3503C53.2753 36.9539 52.8251 36.5237 52.4074 36.0631C51.6217 33.9817 54.766 33.4294 55.9465 34.4997C55.8097 34.3742 57.6751 32.1262 57.8762 31.9254C58.5636 31.153 59.4438 30.5766 60.4268 30.2548C61.8378 30.0882 61.8127 32.3681 61.1461 33.0962C60.9861 33.2354 60.8104 33.3586 60.6276 33.4636C60.0568 33.8219 58.7028 35.3191 58.7551 36.0699C58.8033 36.8231 60.3581 38.626 61.0022 39.1053C62.2489 40.0228 63.1439 39.4705 64.3473 38.9615C64.9981 38.6922 65.69 38.5371 66.3955 38.5028C66.4552 38.4998 66.5126 38.4805 66.562 38.4471C66.6111 38.4138 66.6505 38.3675 66.6753 38.3135C66.7004 38.2594 66.7099 38.1996 66.7034 38.1404C66.6966 38.0813 66.674 38.0251 66.6377 37.9779C66.4652 37.7587 66.2784 37.5513 66.0781 37.3571C65.7083 37.0056 65.1488 36.7729 65.1648 36.1635C65.1831 35.5519 65.9435 34.9425 66.3865 34.591C67.0052 34.13 67.7017 33.7809 68.4415 33.564C69.4721 33.2597 70.5469 33.1324 71.6201 33.1875C72.1636 33.1875 72.6911 33.2879 73.2254 33.3381C73.9103 33.418 74.6045 33.418 75.2896 33.3381C77.3308 31.7177 78.475 29.9969 80.3062 28.1665C80.9592 27.4887 82.3042 25.5511 83.3409 26.2357C83.4735 26.381 83.556 26.5673 83.5761 26.7629ZM56.5129 38.9364C55.7868 38.9364 54.7913 41.7868 54.5401 42.2798C53.3618 44.8772 52.8687 46.2647 50.1764 47.4265C49.6056 47.6683 49.1147 48.1545 49.2721 48.362C49.4321 48.5721 51.5808 48.2526 51.8571 48.2115C52.5603 48.07 53.2841 48.07 53.9876 48.2115C54.5652 48.3209 56.095 49.09 56.6044 48.5219C57.1158 47.9512 57.6912 47.1662 58.2781 46.5068C58.6433 46.073 59.2804 45.6211 59.6732 45.1123C59.7221 45.0515 59.7587 44.9816 59.7805 44.9067C59.8026 44.8316 59.8093 44.7532 59.8008 44.6755C59.7925 44.5981 59.7687 44.5229 59.7311 44.4543C59.6935 44.386 59.6429 44.3257 59.582 44.2768C59.0567 43.8365 58.5543 43.3639 58.084 42.8619C57.6127 41.9497 57.2758 40.9743 57.0837 39.9657C57.0185 39.5687 56.8518 39.1952 56.5996 38.8817L56.5151 38.9387L56.5129 38.9364Z" fill="white"/>
<defs>
<linearGradient id="paint0_linear_163_6175" x1="575" y1="0" x2="575" y2="110" gradientUnits="userSpaceOnUse">
<stop stop-color="#FF6B5E" stop-opacity="0.8"/>
<stop offset="1" stop-color="#E49CC4"/>
</linearGradient>
<linearGradient id="paint1_linear_163_6175" x1="55" y1="0" x2="55" y2="110" gradientUnits="userSpaceOnUse">
<stop stop-color="#FF6B5E" stop-opacity="0.8"/>
<stop offset="1" stop-color="#E49CC4"/>
</linearGradient>
</defs>
</svg>
