<svg width="789" height="110" viewBox="0 0 789 110" fill="none" xmlns="http://www.w3.org/2000/svg">
<rect x="126" width="663" height="110" rx="55" fill="url(#paint0_linear_163_6176)"/>
<path d="M212.191 76.4797V39.8047H219.031L237.346 61.8547V39.3547H245.536V76.0297H238.696L220.381 53.9797V76.4797H212.191ZM277.025 76.4797L274.46 69.3697H260.24L257.675 76.4797H249.215L263.435 39.8047H271.94L286.16 76.4797H277.025ZM262.76 62.2597H271.94L267.35 49.4797L262.76 62.2597ZM313.287 76.4797L303.027 62.4847L298.032 68.2447V76.4797H289.842V39.8047H298.032V57.0847L312.702 39.8047H322.737L308.337 56.4097L323.502 76.4797H313.287ZM327.02 76.4797V39.8047H354.29V46.9147H335.21V54.3847H352.715V61.4947H335.21V69.3697H354.695V76.4797H327.02ZM360.198 76.4797V39.8047H374.418C386.568 39.8047 394.083 47.3197 394.083 58.1647C394.083 69.0097 386.568 76.4797 374.418 76.4797H360.198ZM368.388 69.2347H374.553C381.573 69.2347 385.893 65.2297 385.893 58.1647C385.893 51.0997 381.573 47.0497 374.553 47.0497H368.388V69.2347ZM411.615 76.4797V39.8047H425.7C435.24 39.8047 440.82 45.1147 440.82 53.2147C440.82 61.4047 435.24 66.7147 425.7 66.7147H419.805V76.4797H411.615ZM419.805 59.4697H425.34C429.885 59.4697 432.63 57.3097 432.63 53.2147C432.63 49.1647 429.885 47.0497 425.34 47.0497H419.805V59.4697ZM476.553 76.4797H467.058L459.948 64.9147H453.423V76.4797H445.233V39.8047H459.993C469.308 39.8047 474.753 44.7547 474.753 52.3597C474.753 57.3997 472.368 61.2697 468.048 63.2947L476.553 76.4797ZM453.423 47.0497V57.6697H459.633C463.953 57.6697 466.563 55.8247 466.563 52.3597C466.563 48.8947 463.953 47.0497 459.633 47.0497H453.423ZM498.129 77.3797C486.744 77.3797 478.329 69.2347 478.329 58.1197C478.329 47.0047 486.744 38.8597 498.129 38.8597C509.514 38.8597 517.929 47.0047 517.929 58.1197C517.929 69.2347 509.514 77.3797 498.129 77.3797ZM498.129 69.9997C504.789 69.9997 509.739 65.0047 509.739 58.1197C509.739 51.1897 504.789 46.2397 498.129 46.2397C491.469 46.2397 486.519 51.1897 486.519 58.1197C486.519 65.0047 491.469 69.9997 498.129 69.9997ZM522.796 76.4797V39.8047H537.016C549.166 39.8047 556.681 47.3197 556.681 58.1647C556.681 69.0097 549.166 76.4797 537.016 76.4797H522.796ZM530.986 69.2347H537.151C544.171 69.2347 548.491 65.2297 548.491 58.1647C548.491 51.0997 544.171 47.0497 537.151 47.0497H530.986V69.2347ZM561.15 60.2347V39.8047H569.34V60.2347C569.34 66.0847 572.58 69.9997 577.935 69.9997C583.29 69.9997 586.53 66.0847 586.53 60.2347V39.8047H594.72V60.2347C594.72 70.6297 588.015 77.3797 577.935 77.3797C567.855 77.3797 561.15 70.6297 561.15 60.2347ZM618.755 77.3797C607.46 77.3797 599.135 69.2347 599.135 58.1197C599.135 47.0047 607.46 38.8597 618.755 38.8597C628.835 38.8597 635.585 44.9347 637.07 52.6747H628.79C627.935 49.1647 624.2 46.3747 618.935 46.3747C612.275 46.3747 607.325 51.2797 607.325 58.1197C607.325 64.9147 612.275 69.8647 618.935 69.8647C624.2 69.8647 628.52 66.3997 629.15 63.0697H637.43C636.305 70.4497 628.925 77.3797 618.755 77.3797ZM670.452 39.8047V47.0497H658.527V76.4797H650.337V47.0497H638.412V39.8047H670.452ZM688.629 38.9047C696.819 38.9047 702.939 43.8997 703.344 50.8747H694.884C694.389 47.6797 692.004 45.7447 688.089 45.7447C684.264 45.7447 682.149 47.2747 682.149 49.4797C682.149 52.2247 684.984 53.1697 692.139 54.6547C700.599 56.4097 703.479 60.5947 703.479 66.0847C703.479 73.1047 696.864 77.3797 688.674 77.3797C679.629 77.3797 673.014 72.4747 672.654 64.6447H681.069C681.519 68.1547 684.579 70.4947 689.259 70.4947C692.589 70.4947 695.064 68.8297 695.064 66.4447C695.064 63.5197 692.589 62.3497 686.064 61.1347C678.099 59.6497 673.779 56.3647 673.779 49.4797C673.779 42.8647 680.349 38.9047 688.629 38.9047Z" fill="black"/>
<circle cx="55" cy="55" r="55" fill="#FF0000"/>
<circle cx="55" cy="55" r="55" fill="url(#paint1_linear_163_6176)"/>
<path d="M86.8631 38.9705C87.2752 38.9705 87.683 38.8804 88.0635 38.7052C88.444 38.53 88.7901 38.2733 89.0812 37.9497C89.3726 37.6261 89.6037 37.2418 89.7612 36.819C89.9187 36.3961 90 35.9429 90 35.4852C90 35.0276 89.9187 34.5743 89.7612 34.1515C89.6037 33.7287 89.3726 33.3444 89.0812 33.0208C88.7901 32.6972 88.444 32.4404 88.0635 32.2653C87.683 32.0902 87.2752 32 86.8631 32C86.0314 32 85.2335 32.3672 84.6453 33.0208C84.057 33.6744 83.7265 34.5609 83.7265 35.4852C83.7265 36.4096 84.057 37.2961 84.6453 37.9497C85.2335 38.6033 86.0314 38.9705 86.8631 38.9705ZM39.2692 73.0254C38.9063 72.0582 38.3743 71.1806 37.7043 70.4433C37.0339 69.7061 36.2387 69.124 35.3646 68.7302C34.4905 68.3367 33.5548 68.1397 32.6118 68.1507C31.6687 68.1614 30.7369 68.3801 29.8703 68.7938C29.0038 69.2075 28.2197 69.8081 27.5634 70.5606C26.9071 71.3132 26.3917 72.203 26.0469 73.1785C25.7022 74.1538 25.535 75.1956 25.555 76.2434C25.575 77.2909 25.7818 78.3236 26.1635 79.2822C26.9236 81.1906 28.3305 82.6888 30.0789 83.4517C31.8273 84.2144 33.7758 84.1803 35.5016 83.3564C37.2274 82.5325 38.591 80.9855 39.2965 79.0514C40.0018 77.1172 39.9921 74.9517 39.2692 73.0254ZM31.0216 73.8525C30.7547 73.9606 30.5135 74.1348 30.3161 74.3618C30.1187 74.5886 29.9703 74.8625 29.8821 75.1626C29.7633 75.5269 29.7135 75.9146 29.7359 76.3014C29.7583 76.6882 29.8525 77.0655 30.0124 77.4099C30.1243 77.6274 30.1546 77.8851 30.0967 78.1269C30.0389 78.369 29.8975 78.5761 29.7033 78.703C29.5068 78.8266 29.2744 78.8592 29.0564 78.7937C28.8385 78.7278 28.6528 78.5692 28.5395 78.3522C28.2555 77.7693 28.0856 77.1265 28.0411 76.4655C27.9965 75.8045 28.0784 75.1407 28.2812 74.5172C28.4563 73.9606 28.7399 73.4538 29.1117 73.0332C29.4835 72.6123 29.9343 72.2882 30.432 72.0833C30.5394 72.0337 30.6548 72.0082 30.7713 72.0094C30.8877 72.0105 31.0027 72.038 31.1094 72.0897C31.216 72.1417 31.3121 72.2171 31.3918 72.3113C31.4715 72.4055 31.5332 72.517 31.5731 72.6383C31.613 72.7599 31.6303 72.8891 31.6239 73.0185C31.6176 73.1476 31.5877 73.2739 31.5362 73.39C31.4847 73.5058 31.4125 73.609 31.324 73.6933C31.2356 73.7774 31.1327 73.8407 31.0216 73.8794V73.8525ZM23.1956 70.2041C24.3084 70.2041 25.3756 69.7127 26.1624 68.8385C26.9492 67.9644 27.3913 66.7788 27.3913 65.5423C27.3913 64.3059 26.9492 63.1203 26.1624 62.2458C25.3756 61.3716 24.3084 60.8805 23.1956 60.8805C22.0829 60.8805 21.0157 61.3716 20.2289 62.2458C19.442 63.1203 19 64.3059 19 65.5423C19 66.7788 19.442 67.9644 20.2289 68.8385C21.0157 69.7127 22.0829 70.2041 23.1956 70.2041Z" fill="#BDD9FF"/>
<path d="M84.9225 55.9057C84.9225 55.9057 84.6003 53.6388 84.4643 52.7335C75.6367 65.3222 67.0811 69.0815 54.5294 71.3989H54.3847C54.1632 71.419 53.9431 71.3462 53.7728 71.1965C53.6027 71.0469 53.4962 70.8328 53.477 70.6011C53.458 70.3695 53.5276 70.1393 53.6705 69.9616C53.8137 69.7836 54.0185 69.6723 54.24 69.6523C66.7611 67.3371 75.2114 63.5847 83.9755 50.4L83.4274 47.9496C83.2001 46.9047 82.831 45.8988 82.3314 44.9628C81.6771 43.7866 80.8348 42.736 79.8411 41.8571C79.1217 42.2633 78.3447 42.5465 77.5396 42.6958C77.1307 42.7658 76.7173 42.8028 76.3031 42.8059C74.5157 42.7988 72.7886 42.1297 71.4282 40.9174C70.0679 39.7051 69.1623 38.028 68.872 36.1838C68.876 36.1082 68.876 36.0325 68.872 35.9569C68.2878 35.8014 67.6986 35.6676 67.1051 35.5558C61.6555 34.626 56.082 34.8648 50.7233 36.2577C45.3646 37.6507 40.3329 40.1687 35.9339 43.6588C33.1171 45.8913 28.711 50.517 27.5229 54.1502C26.6395 56.8618 27.0648 58.253 27.4265 60.974C28.319 61.7248 28.9801 62.7339 29.3271 63.8756C29.6741 65.0172 29.6916 66.2401 29.3774 67.3922L29.7369 67.2087C31.1642 66.5686 32.7287 66.337 34.2698 66.5379C35.8109 66.7386 37.2732 67.3644 38.5067 68.3508C39.7402 69.3375 40.7007 70.6493 41.2894 72.1523C41.8781 73.655 42.0739 75.2944 41.857 76.9023C47.098 78.1104 52.506 78.3236 57.8196 77.5304L58.1484 77.4708C63.212 76.5793 68.1059 74.8426 72.6423 72.3271C77.5153 69.533 85.8934 62.6037 84.9225 55.9057ZM46.8133 63.6007C41.4425 63.6007 36.62 62.5854 33.082 60.6048C32.9365 60.5211 32.8179 60.3941 32.7408 60.2401C32.6638 60.0862 32.6319 59.9119 32.6489 59.7393C32.666 59.5665 32.7313 59.4025 32.8368 59.2683C32.9423 59.1342 33.0832 59.0353 33.242 58.9842C33.4564 58.9172 33.6874 58.9421 33.8843 59.053C39.0685 61.9481 47.2955 62.645 55.8927 60.9098L56.0989 60.857C65.5861 58.9361 73.5542 53.9919 76.4041 48.2684C76.5106 48.06 76.692 47.9046 76.9085 47.8364C77.1246 47.7681 77.358 47.7922 77.557 47.9037C77.756 48.0152 77.9047 48.205 77.9701 48.4312C78.0355 48.6574 78.0123 48.9013 77.9055 49.1094C74.8236 55.294 66.3973 60.5979 56.421 62.6198H56.2127C53.1161 63.2559 49.969 63.5844 46.8133 63.6007Z" fill="#FCFFB3"/>
<path d="M81.912 32.2831C81.6856 30.6944 81.022 29.2319 80.0198 28.1119C79.0175 26.9919 77.7294 26.2739 76.3462 26.064C74.963 25.8541 73.558 26.1635 72.3389 26.9464C71.1197 27.7293 70.1512 28.9442 69.5766 30.4113C69.002 31.8785 68.852 33.5201 69.1484 35.0934C69.4448 36.6667 70.172 38.0881 71.2227 39.1476C72.2731 40.207 73.5913 40.8481 74.982 40.9762C76.3727 41.1044 77.7624 40.7124 78.9452 39.8587C80.0338 39.0765 80.8967 37.9391 81.425 36.5905C81.9531 35.2419 82.1226 33.7429 81.912 32.2831ZM74.0996 31.0503C73.8562 31.0818 73.622 31.1756 73.414 31.3249C73.206 31.4742 73.0297 31.6752 72.8979 31.9133C72.725 32.2118 72.6082 32.5486 72.5547 32.9022C72.5011 33.2558 72.5123 33.6184 72.5869 33.9668C72.6264 34.1021 72.641 34.2454 72.6293 34.3875C72.6178 34.5296 72.5809 34.6674 72.5203 34.7919C72.46 34.9165 72.3779 35.0251 72.2788 35.1107C72.18 35.1964 72.0666 35.2572 71.946 35.2892C71.8287 35.3343 71.7047 35.3506 71.5817 35.3371C71.4588 35.3237 71.3394 35.2808 71.2318 35.2112C71.1239 35.1416 71.0298 35.0468 70.9554 34.9329C70.8813 34.819 70.8283 34.6884 70.8002 34.5496C70.6561 33.9076 70.6314 33.2377 70.7276 32.5839C70.8238 31.9301 71.0389 31.3073 71.3587 30.7562C71.6397 30.2591 72.0128 29.8402 72.4509 29.5297C72.8893 29.2191 73.382 29.0247 73.8931 28.9603C74.1383 28.9276 74.385 29.0088 74.5785 29.1858C74.7719 29.3629 74.8965 29.6214 74.9248 29.9045C74.9531 30.1876 74.8829 30.4721 74.7295 30.6954C74.5761 30.9187 74.352 31.0625 74.1068 31.0952L74.0996 31.0503Z" fill="#BDD9FF"/>
<defs>
<linearGradient id="paint0_linear_163_6176" x1="457.5" y1="0" x2="457.5" y2="110" gradientUnits="userSpaceOnUse">
<stop stop-color="#EED6E6"/>
<stop offset="1" stop-color="#F68DC6"/>
</linearGradient>
<linearGradient id="paint1_linear_163_6176" x1="55" y1="0" x2="55" y2="110" gradientUnits="userSpaceOnUse">
<stop stop-color="#EED6E6"/>
<stop offset="1" stop-color="#F68DC6"/>
</linearGradient>
</defs>
</svg>
