<svg width="774" height="110" viewBox="0 0 774 110" fill="none" xmlns="http://www.w3.org/2000/svg">
<rect x="126" width="648" height="110" rx="55" fill="url(#paint0_linear_163_6162)"/>
<path d="M225.001 36.375V73.05H216.856V43.485H210.376V36.375H225.001ZM246.223 35.385C254.233 35.385 260.263 41.82 260.263 54.69C260.263 67.515 254.233 73.95 246.223 73.95C238.213 73.95 232.183 67.515 232.183 54.69C232.183 41.82 238.213 35.385 246.223 35.385ZM246.223 42.54C242.623 42.54 239.923 46.32 239.923 54.69C239.923 63.015 242.623 66.795 246.223 66.795C249.823 66.795 252.523 63.015 252.523 54.69C252.523 46.32 249.823 42.54 246.223 42.54ZM277.908 35.385C285.918 35.385 291.948 41.82 291.948 54.69C291.948 67.515 285.918 73.95 277.908 73.95C269.898 73.95 263.868 67.515 263.868 54.69C263.868 41.82 269.898 35.385 277.908 35.385ZM277.908 42.54C274.308 42.54 271.608 46.32 271.608 54.69C271.608 63.015 274.308 66.795 277.908 66.795C281.508 66.795 284.208 63.015 284.208 54.69C284.208 46.32 281.508 42.54 277.908 42.54ZM304.552 35.7C309.907 35.7 313.597 39.345 313.597 44.385C313.597 49.38 309.907 53.025 304.552 53.025C299.242 53.025 295.552 49.38 295.552 44.385C295.552 39.345 299.242 35.7 304.552 35.7ZM330.697 36.375L306.397 73.05H300.232L324.532 36.375H330.697ZM304.552 40.92C302.527 40.92 301.087 42.405 301.087 44.385C301.087 46.365 302.527 47.85 304.552 47.85C306.577 47.85 308.017 46.365 308.017 44.385C308.017 42.405 306.577 40.92 304.552 40.92ZM326.332 56.355C331.687 56.355 335.377 60 335.377 65.04C335.377 70.035 331.687 73.68 326.332 73.68C321.022 73.68 317.332 70.035 317.332 65.04C317.332 60 321.022 56.355 326.332 56.355ZM326.332 61.575C324.307 61.575 322.867 63.06 322.867 65.04C322.867 67.02 324.307 68.505 326.332 68.505C328.357 68.505 329.797 67.02 329.797 65.04C329.797 63.06 328.357 61.575 326.332 61.575ZM379.438 36.375H388.033L373.543 73.05H364.723L350.233 36.375H359.503L369.493 63.375L379.438 36.375ZM391.739 73.05V36.375H419.009V43.485H399.929V50.955H417.434V58.065H399.929V65.94H419.414V73.05H391.739ZM442.39 35.43C451.975 35.43 458.905 40.83 461.02 47.715H452.02C450.49 45.015 447.025 42.945 442.57 42.945C435.91 42.945 430.96 47.85 430.96 54.69C430.96 61.575 435.91 66.57 442.57 66.57C448.285 66.57 452.245 63.06 453.1 59.46H441.895V52.53H461.83V54.69C461.83 65.805 453.505 73.95 442.39 73.95C431.095 73.95 422.77 65.805 422.77 54.69C422.77 43.575 431.095 35.43 442.39 35.43ZM466.709 73.05V36.375H493.979V43.485H474.899V50.955H492.404V58.065H474.899V65.94H494.384V73.05H466.709ZM529.858 36.375V43.62H517.933V73.05H509.743V43.62H497.818V36.375H529.858ZM553.956 73.05L551.391 65.94H537.171L534.606 73.05H526.146L540.366 36.375H548.871L563.091 73.05H553.956ZM539.691 58.83H548.871L544.281 46.05L539.691 58.83ZM598.093 73.05H588.598L581.488 61.485H574.963V73.05H566.773V36.375H581.533C590.848 36.375 596.293 41.325 596.293 48.93C596.293 53.97 593.908 57.84 589.588 59.865L598.093 73.05ZM574.963 43.62V54.24H581.173C585.493 54.24 588.103 52.395 588.103 48.93C588.103 45.465 585.493 43.62 581.173 43.62H574.963ZM601.885 36.375H610.075V73.05H601.885V36.375ZM641.583 73.05L639.018 65.94H624.798L622.233 73.05H613.773L627.993 36.375H636.498L650.718 73.05H641.583ZM627.318 58.83H636.498L631.908 46.05L627.318 58.83ZM654.4 73.05V36.375H661.24L679.555 58.425V35.925H687.745V72.6H680.905L662.59 50.55V73.05H654.4Z" fill="black"/>
<circle cx="55" cy="55" r="55" fill="url(#paint1_linear_163_6162)"/>
<circle cx="55" cy="55" r="55" fill="black" fill-opacity="0.2"/>
<circle cx="55" cy="55" r="55" fill="url(#paint2_linear_163_6162)"/>
<path fill-rule="evenodd" clip-rule="evenodd" d="M80.054 30.3075C67.1725 38.6664 59.2339 56.5361 59.1527 56.7177C59.0497 56.951 58.8771 57.1239 58.6725 57.1992C58.4679 57.2745 58.2479 57.246 58.06 57.1199C57.9668 57.059 57.8844 56.9758 57.8174 56.8746C57.7503 56.7736 57.7002 56.6565 57.6698 56.531C57.6394 56.4053 57.6294 56.2733 57.6403 56.1427C57.6512 56.0124 57.683 55.8858 57.7338 55.7707C58.0642 55.0185 65.9779 37.1954 79.2998 28.5459C79.4896 28.4225 79.7105 28.3971 79.9149 28.4752C80.1192 28.5534 80.2909 28.7288 80.3928 28.9636C80.6006 29.4514 80.4489 30.0532 80.054 30.3075ZM48.2991 61.6313C48.1031 61.7083 47.8903 61.6854 47.7075 61.5678C47.5247 61.4505 47.3864 61.2477 47.3226 61.0035C44.0795 48.2292 30.078 39.1854 29.9368 39.0945C29.8465 39.0387 29.766 38.9609 29.7002 38.8655C29.6343 38.7705 29.5845 38.6596 29.5535 38.5401C29.5225 38.4202 29.511 38.2941 29.5198 38.1686C29.5285 38.0434 29.5572 37.9215 29.6043 37.8103C29.703 37.5846 29.8683 37.416 30.0651 37.3405C30.2619 37.2648 30.4745 37.2882 30.6577 37.4056C31.2582 37.7843 45.378 46.9008 48.8144 60.438C48.941 60.9386 48.7104 61.4759 48.2991 61.6313ZM83.902 25.5443C83.8749 25.1817 83.7479 24.8421 83.5431 24.5829C83.3382 24.3238 83.068 24.1612 82.778 24.1226C82.6346 24.1044 79.2251 23.6971 74.8454 24.4754C68.9656 25.5209 64.1454 28.2424 60.9043 32.3466C57.6631 36.4482 55.5106 42.5474 54.6837 49.9879C54.3225 53.2101 54.2223 56.4696 54.3847 59.7169C53.6629 61.1152 53.1556 62.6686 52.8888 64.2984C52.4141 63.3931 51.8693 62.5484 51.262 61.7768L51.2079 61.7196C51.345 58.2692 51.3471 46.5351 45.6647 39.3436C39.0868 31.0183 27.6908 32.3337 27.2129 32.3907C26.9225 32.4282 26.6514 32.5905 26.446 32.8498C26.2406 33.109 26.1137 33.4493 26.0869 33.8124C26.0391 34.4247 25.0023 48.8415 31.5802 57.1614C36.498 63.3878 44.1127 64.2206 47.8379 64.2206C48.6067 64.2206 49.2092 64.1842 49.5893 64.1557C51.5694 66.7318 52.6623 70.2369 52.6623 74.0556V84.4616C52.6623 85.3359 53.2233 86.0466 53.9151 86.0466C54.2492 86.0438 54.5687 85.8757 54.8037 85.579C55.0385 85.2823 55.1695 84.8813 55.1679 84.4642V67.0587C55.1679 65.0664 55.6187 63.1621 56.4476 61.5224C58.792 61.6454 61.1405 61.5021 63.464 61.0943C69.3438 60.0463 74.164 57.3275 77.4051 53.2231C80.6463 49.119 82.7986 43.0198 83.6236 35.5817C84.2407 30.0377 83.9166 25.7259 83.902 25.5443Z" fill="#1E5B3C"/>
<defs>
<linearGradient id="paint0_linear_163_6162" x1="450" y1="0" x2="450" y2="110" gradientUnits="userSpaceOnUse">
<stop stop-color="#DFEDC8" stop-opacity="0.6"/>
<stop offset="1" stop-color="#BED993"/>
</linearGradient>
<linearGradient id="paint1_linear_163_6162" x1="55" y1="0" x2="55" y2="110" gradientUnits="userSpaceOnUse">
<stop stop-color="#FFE2FA" stop-opacity="0.1"/>
<stop offset="1" stop-color="#FFE2FA"/>
</linearGradient>
<linearGradient id="paint2_linear_163_6162" x1="55" y1="0" x2="55" y2="110" gradientUnits="userSpaceOnUse">
<stop stop-color="#DFEDC8" stop-opacity="0.6"/>
<stop offset="1" stop-color="#BED993"/>
</linearGradient>
</defs>
</svg>
