<svg width="801" height="110" viewBox="0 0 801 110" fill="none" xmlns="http://www.w3.org/2000/svg">
<rect x="126" width="675" height="110" rx="55" fill="url(#paint0_linear_163_6169)"/>
<path d="M213.313 73.05V36.375H240.223V43.575H221.503V51.9H238.153V59.01H221.503V73.05H213.313ZM276.054 73.05H266.559L259.449 61.485H252.924V73.05H244.734V36.375H259.494C268.809 36.375 274.254 41.325 274.254 48.93C274.254 53.97 271.869 57.84 267.549 59.865L276.054 73.05ZM252.924 43.62V54.24H259.134C263.454 54.24 266.064 52.395 266.064 48.93C266.064 45.465 263.454 43.62 259.134 43.62H252.924ZM279.846 73.05V36.375H307.116V43.485H288.036V50.955H305.541V58.065H288.036V65.94H307.521V73.05H279.846ZM327.29 35.475C335.48 35.475 341.6 40.47 342.005 47.445H333.545C333.05 44.25 330.665 42.315 326.75 42.315C322.925 42.315 320.81 43.845 320.81 46.05C320.81 48.795 323.645 49.74 330.8 51.225C339.26 52.98 342.14 57.165 342.14 62.655C342.14 69.675 335.525 73.95 327.335 73.95C318.29 73.95 311.675 69.045 311.315 61.215H319.73C320.18 64.725 323.24 67.065 327.92 67.065C331.25 67.065 333.725 65.4 333.725 63.015C333.725 60.09 331.25 58.92 324.725 57.705C316.76 56.22 312.44 52.935 312.44 46.05C312.44 39.435 319.01 35.475 327.29 35.475ZM371.34 36.375H379.53V73.05H371.34V58.155H355.14V73.05H346.95V36.375H355.14V50.91H371.34V36.375ZM416.63 73.95C405.335 73.95 397.01 65.805 397.01 54.69C397.01 43.575 405.335 35.43 416.63 35.43C426.71 35.43 433.46 41.505 434.945 49.245H426.665C425.81 45.735 422.075 42.945 416.81 42.945C410.15 42.945 405.2 47.85 405.2 54.69C405.2 61.485 410.15 66.435 416.81 66.435C422.075 66.435 426.395 62.97 427.025 59.64H435.305C434.18 67.02 426.8 73.95 416.63 73.95ZM458.207 73.95C446.822 73.95 438.407 65.805 438.407 54.69C438.407 43.575 446.822 35.43 458.207 35.43C469.592 35.43 478.007 43.575 478.007 54.69C478.007 65.805 469.592 73.95 458.207 73.95ZM458.207 66.57C464.867 66.57 469.817 61.575 469.817 54.69C469.817 47.76 464.867 42.81 458.207 42.81C451.547 42.81 446.597 47.76 446.597 54.69C446.597 61.575 451.547 66.57 458.207 66.57ZM497.138 35.475C505.328 35.475 511.448 40.47 511.853 47.445H503.393C502.898 44.25 500.513 42.315 496.598 42.315C492.773 42.315 490.658 43.845 490.658 46.05C490.658 48.795 493.493 49.74 500.648 51.225C509.108 52.98 511.988 57.165 511.988 62.655C511.988 69.675 505.373 73.95 497.183 73.95C488.138 73.95 481.523 69.045 481.163 61.215H489.578C490.028 64.725 493.088 67.065 497.768 67.065C501.098 67.065 503.573 65.4 503.573 63.015C503.573 60.09 501.098 58.92 494.573 57.705C486.608 56.22 482.288 52.935 482.288 46.05C482.288 39.435 488.858 35.475 497.138 35.475ZM516.799 73.05V36.375H523.324L535.969 56.895L548.614 36.375H555.139V73.05H546.949V52.935L538.444 67.02H533.494L524.989 52.935V73.05H516.799ZM561.623 73.05V36.375H588.893V43.485H569.813V50.955H587.318V58.065H569.813V65.94H589.298V73.05H561.623ZM624.772 36.375V43.62H612.847V73.05H604.657V43.62H592.732V36.375H624.772ZM629.167 36.375H637.357V73.05H629.167V36.375ZM661.845 73.95C650.55 73.95 642.225 65.805 642.225 54.69C642.225 43.575 650.55 35.43 661.845 35.43C671.925 35.43 678.675 41.505 680.16 49.245H671.88C671.025 45.735 667.29 42.945 662.025 42.945C655.365 42.945 650.415 47.85 650.415 54.69C650.415 61.485 655.365 66.435 662.025 66.435C667.29 66.435 671.61 62.97 672.24 59.64H680.52C679.395 67.02 672.015 73.95 661.845 73.95ZM699.506 35.475C707.696 35.475 713.816 40.47 714.221 47.445H705.761C705.266 44.25 702.881 42.315 698.966 42.315C695.141 42.315 693.026 43.845 693.026 46.05C693.026 48.795 695.861 49.74 703.016 51.225C711.476 52.98 714.356 57.165 714.356 62.655C714.356 69.675 707.741 73.95 699.551 73.95C690.506 73.95 683.891 69.045 683.531 61.215H691.946C692.396 64.725 695.456 67.065 700.136 67.065C703.466 67.065 705.941 65.4 705.941 63.015C705.941 60.09 703.466 58.92 696.941 57.705C688.976 56.22 684.656 52.935 684.656 46.05C684.656 39.435 691.226 35.475 699.506 35.475Z" fill="black"/>
<circle cx="55" cy="55" r="55" fill="url(#paint1_linear_163_6169)"/>
<path d="M82.8705 57.7681C82.069 47.2208 77.0794 37.4444 69.1722 30.9536C61.2652 24.4654 51.8908 22.4022 43.3506 25.2518C39.8385 26.3581 36.5647 28.3357 33.7459 31.0537C30.9272 33.7717 28.6278 37.1681 27 41.0182C28.3434 41.8081 29.6796 42.6153 31.0083 43.4394C32.5038 40.2302 34.5407 37.4199 36.9923 35.1835C39.4438 32.947 42.2577 31.3323 45.2586 30.4397C48.9119 29.4579 52.6977 29.388 56.3753 30.2348C60.0526 31.0815 63.5409 32.8262 66.6181 35.3579C69.6953 37.8895 72.294 41.1525 74.2484 44.9394C76.203 48.726 77.4707 52.9536 77.9707 57.3526C78.3235 60.9874 78.0419 64.6696 77.1438 68.1701C76.2455 71.6706 74.7496 74.9151 72.7492 77.7023C73.9121 78.9299 75.0664 80.1755 76.1988 81.4394C78.6607 78.2778 80.5283 74.5333 81.6784 70.4532C82.8285 66.3733 83.2347 62.0481 82.8705 57.7681Z" fill="#FF7830"/>
<path d="M75.8686 57.5272C75.4176 53.5078 74.2813 49.6456 72.5317 46.1864C70.7822 42.7272 68.4577 39.7462 65.7058 37.4327C62.9539 35.1192 59.8349 33.5237 56.5465 32.7476C53.2584 31.9715 49.8727 32.0317 46.6047 32.9244C43.9535 33.7284 41.4671 35.1826 39.299 37.1971C37.1309 39.2115 35.3274 41.7433 34 44.6358L34.3798 44.8935C35.8615 45.8434 37.3327 46.824 38.7893 47.8371L39.3528 48.2236C40.7797 49.2132 42.1961 50.2247 43.6017 51.2583L43.9836 51.5362C45.5131 52.6481 46.9719 53.7851 48.4536 54.9396L48.9648 55.3464C50.0813 56.2359 51.1894 57.1404 52.2891 58.0578C52.7024 51.0636 52.9091 43.9509 52.8631 36.8736C52.8631 36.7522 52.883 36.632 52.9212 36.5198C52.9597 36.4076 53.016 36.3056 53.0869 36.2197C53.1578 36.1338 53.2418 36.0657 53.3347 36.0193C53.4273 35.9728 53.5265 35.9489 53.6268 35.9489C53.7272 35.9489 53.8266 35.9728 53.9192 36.0193C54.0118 36.0657 54.0961 36.1338 54.167 36.2197C54.2379 36.3056 54.2942 36.4076 54.3327 36.5198C54.3709 36.632 54.3908 36.7522 54.3908 36.8736C54.4365 44.0141 54.23 51.1927 53.8105 58.2523C59.1183 55.3001 64.5191 52.5997 70.0003 50.1566C70.0957 50.1068 70.1982 50.0808 70.302 50.0803C70.4056 50.0797 70.5085 50.1046 70.6039 50.1536C70.6996 50.2025 70.7859 50.2742 70.858 50.3647C70.9299 50.455 70.9861 50.5622 71.023 50.6796C71.0594 50.7974 71.0757 50.9233 71.0706 51.0491C71.0657 51.1746 71.0396 51.298 70.9938 51.411C70.9481 51.5239 70.8837 51.6246 70.8048 51.7066C70.726 51.7884 70.634 51.85 70.5346 51.8874C65.0879 54.313 59.7017 57.0116 54.4909 59.9073C55.5824 60.8346 56.6674 61.7593 57.7463 62.6841L58.2576 63.1464C59.6767 64.4098 61.0853 65.7035 62.4814 67.0224L62.7257 67.2626C64.034 68.5107 65.3238 69.7691 66.6009 71.0552C66.7908 71.2396 66.9828 71.4267 67.1644 71.6211C68.4582 72.9149 69.7313 74.2338 70.9854 75.5804L71.2839 75.8938C73.0434 73.3741 74.358 70.4447 75.1465 67.2864C75.9351 64.128 76.1808 60.805 75.8686 57.5272ZM46.7195 68.9631L46.5984 68.6674L43.1677 60.342L39.3486 68.4803L39.1566 68.8898C38.9291 69.5041 38.8043 70.1671 38.7893 70.8402C38.7652 71.5068 38.8509 72.1728 39.0415 72.7987C39.2321 73.4247 39.5238 73.9986 39.8995 74.4868C40.2752 74.9751 40.7274 75.3676 41.2298 75.6419C41.7322 75.9162 42.2747 76.0667 42.8256 76.0845C43.3765 76.1022 43.9246 75.9871 44.4384 75.7456C44.9522 75.5041 45.421 75.1411 45.8176 74.6777C46.2143 74.2147 46.5307 73.6605 46.7486 73.0476C46.9666 72.4346 47.0814 71.7754 47.0867 71.1083C47.0986 70.3679 46.9731 69.6365 46.7195 68.9631ZM58.6771 79.8708L58.5539 79.5727L55.1316 71.2472L51.3126 79.3883L51.1206 79.7849C50.8313 80.5513 50.7053 81.3932 50.7545 82.2338C50.8037 83.0746 51.0263 83.8866 51.4022 84.5959C51.7781 85.3051 52.295 85.8888 52.9054 86.2934C53.516 86.6979 54.2006 86.9104 54.8966 86.9112C55.5924 86.9121 56.2775 86.7014 56.8888 86.2986C57.4999 85.8957 58.0179 85.3133 58.395 84.6052C58.7721 83.897 58.9963 83.0855 59.0472 82.245C59.0978 81.4044 58.9734 80.5623 58.6855 79.795L58.6771 79.8708Z" fill="#FFA33A"/>
<defs>
<linearGradient id="paint0_linear_163_6169" x1="463.5" y1="0" x2="463.5" y2="110" gradientUnits="userSpaceOnUse">
<stop offset="0.120192" stop-color="#F3D0A6" stop-opacity="0.6"/>
<stop offset="0.860577" stop-color="#FFB755"/>
</linearGradient>
<linearGradient id="paint1_linear_163_6169" x1="55" y1="0" x2="55" y2="110" gradientUnits="userSpaceOnUse">
<stop offset="0.120192" stop-color="#F3D0A6" stop-opacity="0.6"/>
<stop offset="0.860577" stop-color="#FFB755"/>
</linearGradient>
</defs>
</svg>
