<svg width="739" height="110" viewBox="0 0 739 110" fill="none" xmlns="http://www.w3.org/2000/svg">
<rect x="126" width="613" height="110" rx="55" fill="url(#paint0_linear_163_6156)"/>
<path d="M210.526 73.05V36.375H237.796V43.485H218.716V50.955H236.221V58.065H218.716V65.94H238.201V73.05H210.526ZM273.674 36.375V43.62H261.749V73.05H253.559V43.62H241.634V36.375H273.674ZM302.46 36.375H310.65V73.05H302.46V58.155H286.26V73.05H278.07V36.375H286.26V50.91H302.46V36.375ZM317.137 36.375H325.327V73.05H317.137V36.375ZM349.815 73.95C338.52 73.95 330.195 65.805 330.195 54.69C330.195 43.575 338.52 35.43 349.815 35.43C359.895 35.43 366.645 41.505 368.13 49.245H359.85C358.995 45.735 355.26 42.945 349.995 42.945C343.335 42.945 338.385 47.85 338.385 54.69C338.385 61.485 343.335 66.435 349.995 66.435C355.26 66.435 359.58 62.97 360.21 59.64H368.49C367.365 67.02 359.985 73.95 349.815 73.95ZM396.429 73.05L393.864 65.94H379.644L377.079 73.05H368.619L382.839 36.375H391.344L405.564 73.05H396.429ZM382.164 58.83H391.344L386.754 46.05L382.164 58.83ZM409.246 36.375H417.436V65.805H435.751V73.05H409.246V36.375ZM452.489 73.05V36.375H468.419C476.564 36.375 481.154 40.605 481.154 47.31C481.154 49.92 479.399 52.89 476.879 53.835C480.389 54.96 482.864 58.38 482.864 61.935C482.864 68.73 478.004 73.05 469.769 73.05H452.489ZM460.679 51.225H468.059C471.164 51.225 472.964 49.875 472.964 47.31C472.964 44.745 471.164 43.35 468.059 43.35H460.679V51.225ZM460.679 66.075H469.409C472.649 66.075 474.674 64.635 474.674 61.935C474.674 59.235 472.649 57.795 469.409 57.795H460.679V66.075ZM486.711 56.805V36.375H494.901V56.805C494.901 62.655 498.141 66.57 503.496 66.57C508.851 66.57 512.091 62.655 512.091 56.805V36.375H520.281V56.805C520.281 67.2 513.576 73.95 503.496 73.95C493.416 73.95 486.711 67.2 486.711 56.805ZM559.302 36.375L545.577 61.53V73.05H537.387V61.53L523.662 36.375H533.022L541.842 53.7L550.617 36.375H559.302ZM563.143 36.375H571.333V73.05H563.143V36.375ZM577.821 73.05V36.375H584.661L602.976 58.425V35.925H611.166V72.6H604.326L586.011 50.55V73.05H577.821ZM635.635 35.43C645.22 35.43 652.15 40.83 654.265 47.715H645.265C643.735 45.015 640.27 42.945 635.815 42.945C629.155 42.945 624.205 47.85 624.205 54.69C624.205 61.575 629.155 66.57 635.815 66.57C641.53 66.57 645.49 63.06 646.345 59.46H635.14V52.53H655.075V54.69C655.075 65.805 646.75 73.95 635.635 73.95C624.34 73.95 616.015 65.805 616.015 54.69C616.015 43.575 624.34 35.43 635.635 35.43Z" fill="black"/>
<circle cx="55" cy="55" r="55" fill="url(#paint1_linear_163_6156)"/>
<circle cx="55" cy="55" r="55" fill="url(#paint2_linear_163_6156)"/>
<path d="M84.483 33.1794L74.7144 36.8366L64.2078 32.5191C63.1297 32.0712 61.9605 31.9094 60.8068 32.0483C59.6527 32.1873 58.5506 32.6226 57.6 33.3148C54.2108 35.7537 50.5227 37.7134 46.6334 39.1421C46.3309 39.2661 46.0723 39.4831 45.892 39.7638C45.7119 40.0446 45.6188 40.3757 45.6253 40.7129C45.6318 41.05 45.7377 41.377 45.9284 41.6501C46.1194 41.9232 46.3864 42.129 46.6934 42.2406C49.4057 43.1463 52.2702 43.4552 55.1045 43.1475C57.9384 42.8401 60.6792 41.9226 63.1516 40.4542L87.4833 62.9251C87.9926 63.3963 88.4173 63.9549 88.7385 64.5786L96.046 56.4571L84.483 33.1794Z" fill="#FFB2A4"/>
<path d="M85.5546 63.5743L62.7708 43.3676C57.643 45.8563 51.7467 46.2742 46.3167 44.5336C45.7638 44.3476 45.2632 44.0343 44.8554 43.6187C44.4476 43.2032 44.1447 42.6976 43.9709 42.1432C43.6613 41.215 43.7233 40.2036 44.1438 39.3196C44.5644 38.4356 45.3109 37.747 46.2286 37.3969C49.1939 36.3489 52.0344 34.979 54.6984 33.3121C51.3623 32.7511 47.9408 32.9712 44.7047 33.9548C40.1523 34.2921 35.5865 34.3532 31.0259 34.1407L25.7022 32L13 54.8308L19.9168 60.3816L23.6208 57.3115C24.6281 56.4716 25.9013 56.0134 27.2153 56.0179C28.7655 56.0753 30.2296 56.7423 31.2866 57.8725C32.3436 59.0026 32.9072 60.5039 32.8539 62.047L33.2435 61.7256C33.9259 61.1505 34.7395 60.7503 35.6131 60.5605C36.4868 60.3707 37.394 60.397 38.255 60.6366C39.7451 61.1022 40.9961 62.1231 41.7468 63.4861C42.4974 64.849 42.689 66.4481 42.2818 67.9484C42.6689 67.9061 43.0556 67.9061 43.4454 67.9484C44.982 68.2076 46.3549 69.057 47.2685 70.314C48.182 71.5709 48.5625 73.1344 48.3288 74.6682C49.027 74.4938 49.7533 74.46 50.4648 74.5684C51.1764 74.6771 51.8591 74.9259 52.4728 75.3003C53.8009 76.1337 54.7589 77.4407 55.1507 78.9541C55.5428 80.4672 55.3388 82.0722 54.581 83.4408L59.6513 87.4248C59.8541 87.5788 60.0757 87.7062 60.3076 87.8045C60.9109 88.1179 61.5806 88.2775 62.261 88.2722C63.4696 88.2414 64.6165 87.7349 65.45 86.8633C66.2834 85.992 66.7354 84.8268 66.7069 83.6241C66.7069 83.1638 66.6414 82.706 66.5121 82.2644C66.9133 82.6923 67.3989 83.0341 67.9381 83.2678C68.4776 83.5018 69.0592 83.6229 69.6476 83.6241C70.856 83.5906 72.002 83.0815 72.8334 82.2081C73.665 81.3344 74.1144 80.1684 74.0826 78.9657C74.0847 77.9776 73.781 77.0133 73.2127 76.2033C73.6066 76.6422 74.0877 76.9949 74.6254 77.2396C75.1634 77.4842 75.7462 77.6151 76.3373 77.6243C76.9284 77.6335 77.5151 77.5209 78.0605 77.2932C78.6057 77.0654 79.0974 76.7278 79.5052 76.3016C79.7505 76.105 79.9694 75.8793 80.1616 75.6323C80.7406 74.8196 80.9861 73.8156 80.8447 72.8302C80.826 72.1961 80.6827 71.5718 80.4232 70.9922L80.8046 71.1568C81.7321 71.5629 82.7693 71.647 83.7504 71.3962C84.7315 71.1456 85.5996 70.5743 86.2157 69.774C86.8317 68.9738 87.16 67.9908 87.1482 66.9829C87.1363 65.9748 86.7845 64.9998 86.1498 64.2143C85.9799 63.9762 85.78 63.7612 85.5546 63.5743Z" fill="#FFB2A4"/>
<path d="M29.155 60.0674C28.8855 59.6853 28.5438 59.3652 28.1509 59.1261C27.758 58.8871 27.3223 58.7343 26.8706 58.6774C26.4189 58.6206 25.9607 58.6606 25.5244 58.795C25.0881 58.9295 24.6829 59.1555 24.3336 59.4593L20.2014 63.048C19.4893 63.7043 19.0421 64.6171 18.9495 65.6028C18.857 66.5884 19.126 67.5741 19.7025 68.3616C19.9719 68.7357 20.3111 69.0493 20.6998 69.2836C21.0885 69.5178 21.5186 69.668 21.9644 69.7249C22.4102 69.7814 22.8624 69.7438 23.2938 69.6141C23.7252 69.4844 24.127 69.2649 24.4751 68.9693L28.615 65.3806C29.3328 64.73 29.7875 63.8201 29.8877 62.8345C29.9879 61.8488 29.7261 60.8602 29.155 60.0674ZM38.3915 64.5185C38.1213 64.1406 37.7799 63.824 37.3887 63.5876C36.9972 63.3513 36.5639 63.2 36.1149 63.1431C35.6658 63.0862 35.2103 63.125 34.776 63.2568C34.3416 63.3889 33.9376 63.611 33.5882 63.9105L26.1516 70.3915C25.4335 71.0428 24.9789 71.9532 24.8792 72.9395C24.7795 73.926 25.0421 74.9149 25.6142 75.7078C25.8829 76.0904 26.2241 76.4118 26.6167 76.6517C27.0093 76.8919 27.445 77.0453 27.8968 77.103C28.3487 77.1608 28.8071 77.1214 29.2438 76.9875C29.6804 76.8534 30.0861 76.6274 30.4356 76.3238L37.9107 69.8344C38.6204 69.1752 39.0641 68.2609 39.1534 67.2747C39.2427 66.2887 38.9704 65.3042 38.3915 64.5185ZM44.095 72.0895C43.8259 71.7077 43.4849 71.387 43.0925 71.1477C42.7004 70.9081 42.2653 70.7546 41.8139 70.6966C41.3624 70.6385 40.9045 70.6773 40.4682 70.8106C40.0316 70.9436 39.6262 71.1684 39.2762 71.4708L33.4287 76.5486C32.7095 77.199 32.2534 78.1088 32.1522 79.0951C32.0511 80.0813 32.3124 81.0711 32.8836 81.8648C33.1531 82.2463 33.4947 82.5662 33.8874 82.8049C34.2801 83.0436 34.7155 83.1964 35.1669 83.2533C35.6183 83.3102 36.0761 83.2702 36.5121 83.136C36.9482 83.0018 37.3534 82.7762 37.7025 82.4729L43.5575 77.4031C44.2753 76.7521 44.73 75.8425 44.8302 74.8569C44.9305 73.8712 44.6659 72.8823 44.095 72.0895ZM45.9798 78.1476L42.0995 81.5408C41.3817 82.1915 40.927 83.1016 40.8274 84.0873C40.7277 85.0732 40.9902 86.0619 41.562 86.8541C41.8316 87.2362 42.1733 87.5563 42.5663 87.7953C42.9593 88.0343 43.395 88.1872 43.8467 88.244C44.2984 88.3009 44.7564 88.2609 45.1927 88.1265C45.6289 87.992 46.0344 87.766 46.3835 87.4622L50.2638 84.1012C50.9801 83.4514 51.4345 82.5437 51.5356 81.5598C51.6367 80.5759 51.3772 79.5885 50.8089 78.7956C50.5423 78.4097 50.2024 78.0848 49.8103 77.8414C49.4182 77.5976 48.9822 77.4407 48.5293 77.3799C48.0767 77.3192 47.6167 77.356 47.178 77.4881C46.7394 77.6201 46.3316 77.8446 45.9798 78.1476Z" fill="#FFB2A4"/>
<defs>
<linearGradient id="paint0_linear_163_6156" x1="432.5" y1="0" x2="432.5" y2="110" gradientUnits="userSpaceOnUse">
<stop stop-color="#FDF5CE" stop-opacity="0.6"/>
<stop offset="1" stop-color="#DAB5D6"/>
</linearGradient>
<linearGradient id="paint1_linear_163_6156" x1="55" y1="0" x2="55" y2="110" gradientUnits="userSpaceOnUse">
<stop stop-color="#FDF5CE" stop-opacity="0.6"/>
<stop offset="1" stop-color="#FBC37B"/>
</linearGradient>
<linearGradient id="paint2_linear_163_6156" x1="55" y1="0" x2="55" y2="110" gradientUnits="userSpaceOnUse">
<stop stop-color="#FDF5CE" stop-opacity="0.6"/>
<stop offset="1" stop-color="#DAB5D6"/>
</linearGradient>
</defs>
</svg>
