<svg width="926" height="110" viewBox="0 0 926 110" fill="none" xmlns="http://www.w3.org/2000/svg">
<rect x="126" width="800" height="110" rx="55" fill="url(#paint0_linear_163_6177)"/>
<path d="M245.085 39.8047H253.275V76.4797H245.085V61.5847H228.885V76.4797H220.695V39.8047H228.885V54.3397H245.085V39.8047ZM284.782 76.4797L282.217 69.3697H267.997L265.432 76.4797H256.972L271.192 39.8047H279.697L293.917 76.4797H284.782ZM270.517 62.2597H279.697L275.107 49.4797L270.517 62.2597ZM297.599 76.4797V39.8047H304.439L322.754 61.8547V39.3547H330.944V76.0297H324.104L305.789 53.9797V76.4797H297.599ZM337.413 76.4797V39.8047H351.633C363.783 39.8047 371.298 47.3197 371.298 58.1647C371.298 69.0097 363.783 76.4797 351.633 76.4797H337.413ZM345.603 69.2347H351.768C358.788 69.2347 363.108 65.2297 363.108 58.1647C363.108 51.0997 358.788 47.0497 351.768 47.0497H345.603V69.2347ZM376.217 76.4797V39.8047H382.742L395.387 60.3247L408.032 39.8047H414.557V76.4797H406.367V56.3647L397.862 70.4497H392.912L384.407 56.3647V76.4797H376.217ZM446.061 76.4797L443.496 69.3697H429.276L426.711 76.4797H418.251L432.471 39.8047H440.976L455.196 76.4797H446.061ZM431.796 62.2597H440.976L436.386 49.4797L431.796 62.2597ZM458.878 76.4797V39.8047H473.098C485.248 39.8047 492.763 47.3197 492.763 58.1647C492.763 69.0097 485.248 76.4797 473.098 76.4797H458.878ZM467.068 69.2347H473.233C480.253 69.2347 484.573 65.2297 484.573 58.1647C484.573 51.0997 480.253 47.0497 473.233 47.0497H467.068V69.2347ZM497.682 76.4797V39.8047H524.952V46.9147H505.872V54.3847H523.377V61.4947H505.872V69.3697H525.357V76.4797H497.682ZM583.343 39.8047H591.713L581.138 76.4797H572.858L566.288 53.4847L559.718 76.4797H551.438L540.863 39.8047H549.638L555.938 63.7897L562.238 39.8047H570.743L576.998 63.6997L583.343 39.8047ZM595.592 39.8047H603.782V76.4797H595.592V39.8047ZM640.24 39.8047V47.0497H628.315V76.4797H620.125V47.0497H608.2V39.8047H640.24ZM669.025 39.8047H677.215V76.4797H669.025V61.5847H652.825V76.4797H644.635V39.8047H652.825V54.3397H669.025V39.8047ZM696.315 39.8047H704.505V69.2347H722.82V76.4797H696.315V39.8047ZM744.378 77.3797C732.993 77.3797 724.578 69.2347 724.578 58.1197C724.578 47.0047 732.993 38.8597 744.378 38.8597C755.763 38.8597 764.178 47.0047 764.178 58.1197C764.178 69.2347 755.763 77.3797 744.378 77.3797ZM744.378 69.9997C751.038 69.9997 755.988 65.0047 755.988 58.1197C755.988 51.1897 751.038 46.2397 744.378 46.2397C737.718 46.2397 732.768 51.1897 732.768 58.1197C732.768 65.0047 737.718 69.9997 744.378 69.9997ZM793.306 39.8047H801.901L787.411 76.4797H778.591L764.101 39.8047H773.371L783.361 66.8047L793.306 39.8047ZM805.607 76.4797V39.8047H832.877V46.9147H813.797V54.3847H831.302V61.4947H813.797V69.3697H833.282V76.4797H805.607Z" fill="black"/>
<circle cx="55" cy="55" r="55" fill="url(#paint1_linear_163_6177)"/>
<path d="M36.0764 51.3412C35.8579 51.0473 35.5716 50.7933 35.2343 50.5938C34.897 50.3943 34.5156 50.2534 34.1125 50.1798C33.7095 50.1059 33.2929 50.1006 32.8873 50.1642C32.4818 50.2275 32.0955 50.3586 31.7511 50.5493C31.0662 50.9413 30.5913 51.5427 30.4279 52.2248C30.2644 52.9072 30.4256 53.6162 30.8767 54.1998L36.0353 61.0658L34.621 61.8414C34.621 61.8414 31.1097 57.4337 29.9859 55.9421C26.8146 51.7301 25.4687 45.1819 26.9735 38.8292C27.081 38.4053 27.0432 37.9645 26.8644 37.5579C26.6857 37.1513 26.3733 36.7956 25.9636 36.5321C25.5539 36.2685 25.0636 36.1078 24.5495 36.0687C24.0355 36.0297 23.5188 36.1137 23.0593 36.3112C22.7303 36.4548 22.4396 36.6535 22.2053 36.895C21.9711 37.1364 21.7981 37.4156 21.6971 37.7152C16.8318 51.6196 23.232 65.1443 30.7287 72.4591C31.1589 72.8796 31.4823 73.3693 31.6793 73.8984C31.8763 74.4275 31.9427 74.985 31.8745 75.5362L30.9507 83.7855L46.857 83.6245L48.0628 75.8656C48.933 74.5041 49.362 72.9749 49.3071 71.4308C49.2521 69.8864 48.7153 68.3815 47.7504 67.066L44.2282 62.2463L36.0764 51.3412ZM61.6856 75.854L62.8918 83.6174L78.7978 83.7787L77.8742 75.5272C77.8053 74.9762 77.8712 74.4192 78.0677 73.8906C78.2642 73.3618 78.5874 72.8723 79.0172 72.452C86.5247 65.1373 92.9277 51.6128 88.0488 37.706C87.8541 37.1359 87.403 36.6518 86.7909 36.3558C86.1788 36.0598 85.454 35.9752 84.769 36.1198C84.0839 36.2644 83.4928 36.6269 83.1202 37.1308C82.7476 37.6346 82.6229 38.2404 82.7723 38.8201C84.2964 45.1726 82.9644 51.6957 79.7601 55.9353C78.6473 57.4337 75.1331 61.8346 75.1331 61.8346L73.7189 61.0588L78.8774 54.1907C79.3279 53.6074 79.4889 52.8991 79.3262 52.2175C79.1634 51.5359 78.6894 50.9347 78.0058 50.5425C77.6614 50.3514 77.2751 50.2202 76.8697 50.1564C76.464 50.0928 76.0472 50.0981 75.6441 50.1717C75.241 50.2456 74.8594 50.3865 74.5222 50.5863C74.1848 50.7857 73.8988 51.0402 73.6805 51.3342L65.5616 62.2441L61.9983 67.1075C61.043 68.4162 60.5114 69.9118 60.4568 71.4458C60.4019 72.9801 60.8256 74.4996 61.6856 75.854Z" fill="black"/>
<path d="M71.9493 31.1206C71.5857 30.0919 70.9298 29.1457 70.034 28.3571C69.138 27.5684 68.0263 26.9588 66.7873 26.5769C61.382 24.8851 56.9225 27.3395 54.6898 29.512C52.4545 26.9744 48.5823 24.9683 43.6499 26.5769C42.2365 27.017 40.9699 27.7164 39.9501 28.6198C38.9302 29.5232 38.1853 30.6057 37.7744 31.7816C37.3704 33.0839 37.3292 34.4423 37.6538 35.759C37.9784 37.0757 38.6608 38.3181 39.6519 39.3968C43.177 43.1777 53.5118 50.5573 53.8673 50.8439C54.0905 51.0143 54.3829 51.1137 54.6898 51.1235C54.9746 51.1055 55.2519 51.0426 55.5068 50.9386C55.8648 50.6497 66.197 43.2727 69.7251 39.4892C71.9493 36.8915 72.8951 33.7668 71.9493 31.1206ZM69.4644 35.031C69.4237 35.2314 69.2952 35.4133 69.1022 35.5436C68.909 35.6738 68.6642 35.7438 68.4125 35.7405H68.2576C67.9841 35.7053 67.7388 35.5842 67.5755 35.4036C67.4125 35.223 67.3445 34.9977 67.3863 34.7768C67.5746 34.1633 67.599 33.5246 67.4575 32.903C67.3163 32.2814 67.0125 31.6911 66.5667 31.1714C65.6785 30.3692 64.4445 29.8701 63.116 29.7755C62.9738 29.7739 62.8337 29.7491 62.7038 29.7026C62.5739 29.6562 62.4571 29.5889 62.3603 29.505C62.2635 29.4211 62.1888 29.3222 62.1409 29.2144C62.0926 29.1066 62.0723 28.992 62.0804 28.8776C62.0888 28.7632 62.1258 28.6514 62.1894 28.5489C62.2528 28.4463 62.3411 28.3552 62.4495 28.281C62.5579 28.2068 62.6835 28.1511 62.8192 28.1172C62.9552 28.0833 63.0979 28.0719 63.2392 28.0837C65.1519 28.2127 66.928 28.9342 68.1946 30.0967C68.8319 30.7979 69.2752 31.6014 69.4943 32.4526C69.7134 33.3039 69.7033 34.1832 69.4644 35.031Z" fill="#C83030"/>
<defs>
<linearGradient id="paint0_linear_163_6177" x1="526" y1="0" x2="526" y2="110" gradientUnits="userSpaceOnUse">
<stop offset="0.201923" stop-color="#C2E8F5"/>
<stop offset="1" stop-color="#8A94CD"/>
</linearGradient>
<linearGradient id="paint1_linear_163_6177" x1="55" y1="0" x2="55" y2="110" gradientUnits="userSpaceOnUse">
<stop offset="0.201923" stop-color="#C2E8F5"/>
<stop offset="1" stop-color="#8A94CD"/>
</linearGradient>
</defs>
</svg>
